<svg xmlns="http://www.w3.org/2000/svg" viewBox="0 0 1600 900" role="img" aria-label="GeniFix connector">
  <defs>
    <linearGradient id="bg" x1="0%" y1="0%" x2="100%" y2="100%">
      <stop offset="0%" stop-color="#dfe6ea"/>
      <stop offset="55%" stop-color="#eef2f4"/>
      <stop offset="100%" stop-color="#c8d4db"/>
    </linearGradient>
    <radialGradient id="spot" cx="50%" cy="35%" r="60%">
      <stop offset="0%" stop-color="#ffffff" stop-opacity="0.95"/>
      <stop offset="100%" stop-color="#ffffff" stop-opacity="0"/>
    </radialGradient>
    <filter id="shadow" x="-20%" y="-20%" width="140%" height="140%">
      <feDropShadow dx="0" dy="18" stdDeviation="24" flood-color="#1a2228" flood-opacity="0.18"/>
    </filter>
  </defs>
  <rect width="1600" height="900" fill="url(#bg)"/>
  <rect width="1600" height="900" fill="url(#spot)"/>
  <g transform="translate(800 430)" filter="url(#shadow)">
    <ellipse cx="0" cy="120" rx="220" ry="28" fill="#1a222833"/>
    <g transform="translate(-120 -40)">
      <rect x="0" y="40" width="240" height="70" rx="35" fill="#f7f8f9"/>
      <rect x="18" y="58" width="204" height="34" rx="17" fill="#e8ecef"/>
      <rect x="210" y="62" width="18" height="26" rx="4" fill="#b8c0c8"/>
      <circle cx="228" cy="75" r="6" fill="#98a3ad"/>
    </g>
    <g transform="translate(90 -10) rotate(18)">
      <rect x="0" y="0" width="28" height="180" rx="8" fill="#d5dbe0"/>
      <rect x="4" y="8" width="20" height="164" rx="6" fill="#eef1f3"/>
      <rect x="0" y="0" width="28" height="24" rx="8" fill="#aeb8c0"/>
    </g>
    <g transform="translate(-70 95)">
      <rect x="0" y="0" width="36" height="70" rx="10" fill="#f4f6f7"/>
      <rect x="8" y="10" width="20" height="12" rx="4" fill="#d9e0e4"/>
      <rect x="8" y="28" width="20" height="12" rx="4" fill="#d9e0e4"/>
      <rect x="8" y="46" width="20" height="12" rx="4" fill="#d9e0e4"/>
    </g>
    <g transform="translate(0 95)">
      <rect x="0" y="0" width="36" height="70" rx="10" fill="#f4f6f7"/>
      <rect x="8" y="10" width="20" height="12" rx="4" fill="#d9e0e4"/>
      <rect x="8" y="28" width="20" height="12" rx="4" fill="#d9e0e4"/>
      <rect x="8" y="46" width="20" height="12" rx="4" fill="#d9e0e4"/>
    </g>
    <g transform="translate(70 95)">
      <rect x="0" y="0" width="36" height="70" rx="10" fill="#f4f6f7"/>
      <rect x="8" y="10" width="20" height="12" rx="4" fill="#d9e0e4"/>
      <rect x="8" y="28" width="20" height="12" rx="4" fill="#d9e0e4"/>
      <rect x="8" y="46" width="20" height="12" rx="4" fill="#d9e0e4"/>
    </g>
  </g>
</svg>
